<?xml version="1.0" encoding="UTF-8"?><svg id="a" xmlns="http://www.w3.org/2000/svg" xmlns:xlink="http://www.w3.org/1999/xlink" viewBox="0 0 1240 701"><defs><style>.c{stroke:#0961b6;stroke-width:3px;}.c,.d{stroke-miterlimit:10;}.c,.e{fill:none;}.d{fill:#0961b6;stroke:#000;}.f{clip-path:url(#b);}</style><clipPath id="b"><rect class="e" width="1240" height="701" transform="translate(1240 701) rotate(180)"/></clipPath></defs><g class="f"><path class="d" d="M1240.25,700.5v-214.58s-244.5-90.92-720.5,135.08C167.75,769-.25,553-.25,553v148.5l1240.5-1Z"/><g><path class="c" d="M1243.53,484.17s-239.38-103.66-726.61,96.97C157.61,710.41-2.07,469.8-2.07,469.8"/><path class="c" d="M1243.45,477.9s-242.21-107.07-725.64,91.57C158.53,698.78-2.01,445.33-2.01,445.33"/><path class="c" d="M1243.38,477.77s-245.04-110.47-724.66,86.16C159.44,693.29-1.94,427.01-1.94,427.01"/><path class="c" d="M1243.3,477.6s-247.87-113.88-723.69,80.75C160.36,687.76-1.87,408.65-1.87,408.65"/><path class="c" d="M1243.22,477.39s-250.71-117.29-722.72,75.35C161.27,682.19-1.8,390.24-1.8,390.24"/><path class="c" d="M1243.15,477.14s-253.54-120.69-721.74,69.94C162.19,676.58-1.73,371.8-1.73,371.8"/><path class="c" d="M1243.07,476.86s-256.37-124.1-720.77,64.54C163.1,670.94-1.66,353.33-1.66,353.33"/><path class="c" d="M1243,476.55s-259.21-127.51-719.8,59.13C164.02,665.27-1.59,334.82-1.59,334.82"/><path class="c" d="M1242.92,476.21s-262.04-130.92-718.82,53.72C164.93,659.57-1.52,316.29-1.52,316.29"/><path class="c" d="M1242.85,475.84s-264.87-134.32-717.85,48.32C165.84,653.84-1.46,297.74-1.46,297.74"/><path class="c" d="M1242.77,475.45s-267.71-137.73-716.88,42.91C166.76,648.09-1.39,279.15-1.39,279.15"/><path class="c" d="M1243.5,466.91s-271.62-139.04-715.59,43.03C169.81,642.48-2.13,262.03-2.13,262.03"/><path class="c" d="M1243.92,465.96s-281.68-151.12-713.81,24.6C174.92,621.11-2.96,254.87-2.96,254.87"/><path class="c" d="M1243.57,473.18s-290.68-165.29-712.38,.64C177.87,599.6-3.03,246.23-3.03,246.23"/><path class="c" d="M1243.22,480.39s-299.68-179.47-710.96-23.32C180.82,578.09-3.09,237.59-3.09,237.59"/><path class="c" d="M1242.86,476.44s-308.67-193.65-709.53-47.28C183.76,545.42-3.15,217.8-3.15,217.8"/><path class="c" d="M1242.51,471.14s-317.67-207.83-708.1-71.24C186.71,511.4-3.22,196.65-3.22,196.65"/><path class="c" d="M1242.16,465.85s-326.67-222-706.67-95.2C189.66,477.38-3.28,175.5-3.28,175.5"/><path class="c" d="M1241.8,460.55s-335.66-236.18-705.25-119.16C192.61,443.36-3.34,154.35-3.34,154.35"/><path class="c" d="M1241.45,455.25s-344.66-250.36-703.82-143.12C195.56,409.34-3.4,133.21-3.4,133.21"/><path class="c" d="M1241.1,449.95s-353.65-264.53-702.39-167.08C198.51,375.32-3.47,112.06-3.47,112.06"/><path class="c" d="M1240.74,444.66S878.09,165.95,539.77,253.62C201.46,341.3-3.53,90.91-3.53,90.91"/></g></g></svg>