<?xml version="1.0" encoding="UTF-8"?><svg id="a" xmlns="http://www.w3.org/2000/svg" xmlns:xlink="http://www.w3.org/1999/xlink" viewBox="0 0 1282.59 701"><defs><style>.c{stroke:#0961b6;stroke-miterlimit:10;stroke-width:3px;}.c,.d{fill:none;}.e{clip-path:url(#b);}.f{fill:#0961b6;}</style><clipPath id="b"><rect class="d" x="4.84" width="1273" height="700" transform="translate(1282.69 700) rotate(180)"/></clipPath></defs><g class="e"><path class="f" d="M1278.1,700v-214.58s-251.01-90.92-739.67,135.08C177.06,768.5,4.59,552.5,4.59,552.5v148.5l1273.51-1Z"/><g><path class="c" d="M1281.47,483.67s-245.75-103.66-745.95,96.98C166.65,709.92,2.71,469.3,2.71,469.3"/><path class="c" d="M1281.39,477.41s-248.66-107.07-744.95,91.56C167.6,698.28,2.78,444.83,2.78,444.83"/><path class="c" d="M1281.31,477.31s-251.57-110.48-743.95,86.14C168.54,692.79,2.85,426.51,2.85,426.51"/><path class="c" d="M1281.24,477.16s-254.48-113.89-742.95,80.72C169.49,687.26,2.92,408.14,2.92,408.14"/><path class="c" d="M1281.16,476.96s-257.39-117.31-741.95,75.3C170.43,681.69,2.99,389.73,2.99,389.73"/><path class="c" d="M1281.09,476.73s-260.3-120.72-740.95,69.88C171.37,676.08,3.06,371.29,3.06,371.29"/><path class="c" d="M1281.01,476.47s-263.21-124.13-739.95,64.46C172.32,670.44,3.13,352.81,3.13,352.81"/><path class="c" d="M1280.94,476.18s-266.12-127.54-738.95,59.04C173.26,664.76,3.19,334.3,3.19,334.3"/><path class="c" d="M1280.86,475.86s-269.04-130.95-737.95,53.62C174.21,659.06,3.26,315.77,3.26,315.77"/><path class="c" d="M1280.78,475.51s-271.95-134.37-736.95,48.2C175.15,653.34,3.33,297.2,3.33,297.2"/><path class="c" d="M1280.71,475.14s-274.86-137.78-735.94,42.78C176.09,647.59,3.4,278.62,3.4,278.62"/><path class="c" d="M1281.46,466.18s-278.88-138.98-734.63,43.19C179.23,641.99,2.64,261.58,2.64,261.58"/><path class="c" d="M1281.9,464.82s-289.22-150.95-732.8,25.04C184.48,620.62,1.78,254.49,1.78,254.49"/><path class="c" d="M1281.54,472.05s-298.46-165.12-731.35,1.07C187.5,599.11,1.71,245.85,1.71,245.85"/><path class="c" d="M1281.18,479.28s-307.71-179.3-729.89-22.91C190.52,577.59,1.64,237.2,1.64,237.2"/><path class="c" d="M1280.82,475.59s-316.95-193.48-728.44-46.88C193.55,545.16,1.57,217.64,1.57,217.64"/><path class="c" d="M1280.47,470.31s-326.2-207.66-726.98-70.86C196.57,511.13,1.5,196.48,1.5,196.48"/><path class="c" d="M1280.11,465.03s-335.44-221.84-725.52-94.83C199.6,477.1,1.43,175.32,1.43,175.32"/><path class="c" d="M1279.75,459.74s-344.68-236.02-724.07-118.81C202.62,443.07,1.36,154.16,1.36,154.16"/><path class="c" d="M1279.39,454.46s-353.93-250.2-722.61-142.78C205.64,409.04,1.29,133,1.29,133"/><path class="c" d="M1279.04,449.17s-363.17-264.38-721.16-166.76C208.67,375.01,1.22,111.84,1.22,111.84"/><path class="c" d="M1278.68,443.89S906.26,165.33,558.98,253.16,1.15,90.68,1.15,90.68"/></g></g></svg>