<?xml version="1.0" encoding="UTF-8"?><svg xmlns="http://www.w3.org/2000/svg" viewBox="0 0 387.78 364.56"><defs><style>.e{opacity:.18;}.f,.g,.h,.i,.j,.k,.l,.m,.n{fill:#fff;}.o{fill:#f5f5f5;}.g,.p{opacity:.3;}.q,.l{opacity:.2;}.h,.r{opacity:.1;}.i,.s{opacity:.5;}.t,.k{opacity:.08;}.j{opacity:.8;}.u,.s{fill:#407bff;}.m{opacity:.22;}.v{fill:#0961b6;}.n{opacity:.6;}</style></defs><g id="a"><g class="e"><path class="v" d="M159.26,12.33l.85,1.71c.1,.2,.29,.34,.51,.37l1.89,.27c.56,.08,.78,.77,.38,1.17l-1.37,1.33c-.16,.16-.23,.38-.2,.6l.32,1.88c.1,.56-.49,.98-.99,.72l-1.69-.89c-.2-.1-.44-.1-.64,0l-1.69,.89c-.5,.26-1.09-.16-.99-.72l.32-1.88c.04-.22-.04-.45-.2-.6l-1.37-1.33c-.41-.4-.18-1.08,.38-1.17l1.89-.27c.22-.03,.41-.17,.51-.37l.85-1.71c.25-.51,.97-.51,1.23,0Z"/><path class="v" d="M321.49,123.12l.85,1.71c.1,.2,.29,.34,.51,.37l1.89,.27c.56,.08,.78,.77,.38,1.17l-1.37,1.33c-.16,.16-.23,.38-.2,.6l.32,1.88c.1,.56-.49,.98-.99,.72l-1.69-.89c-.2-.1-.44-.1-.64,0l-1.69,.89c-.5,.26-1.09-.16-.99-.72l.32-1.88c.04-.22-.04-.45-.2-.6l-1.37-1.33c-.41-.4-.18-1.08,.38-1.17l1.89-.27c.22-.03,.41-.17,.51-.37l.85-1.71c.25-.51,.97-.51,1.23,0Z"/><path class="v" d="M34.75,153.19l.85,1.71c.1,.2,.29,.34,.51,.37l1.89,.27c.56,.08,.78,.77,.38,1.17l-1.37,1.33c-.16,.16-.23,.38-.2,.6l.32,1.88c.1,.56-.49,.98-.99,.72l-1.69-.89c-.2-.1-.44-.1-.64,0l-1.69,.89c-.5,.26-1.09-.16-.99-.72l.32-1.88c.04-.22-.04-.45-.2-.6l-1.37-1.33c-.41-.4-.18-1.08,.38-1.17l1.89-.27c.22-.03,.41-.17,.51-.37l.85-1.71c.25-.51,.97-.51,1.23,0Z"/><path class="v" d="M263.84,157.46l.85,1.71c.1,.2,.29,.34,.51,.37l1.89,.27c.56,.08,.78,.77,.38,1.17l-1.37,1.33c-.16,.16-.23,.38-.2,.6l.32,1.88c.1,.56-.49,.98-.99,.72l-1.69-.89c-.2-.1-.44-.1-.64,0l-1.69,.89c-.5,.26-1.09-.16-.99-.72l.32-1.88c.04-.22-.04-.45-.2-.6l-1.37-1.33c-.41-.4-.18-1.08,.38-1.17l1.89-.27c.22-.03,.41-.17,.51-.37l.85-1.71c.25-.51,.97-.51,1.23,0Z"/><path class="v" d="M19.05,58.69l.85,1.71c.1,.2,.29,.34,.51,.37l1.89,.27c.56,.08,.78,.77,.38,1.17l-1.37,1.33c-.16,.16-.23,.38-.2,.6l.32,1.88c.1,.56-.49,.98-.99,.72l-1.69-.89c-.2-.1-.44-.1-.64,0l-1.69,.89c-.5,.26-1.09-.16-.99-.72l.32-1.88c.04-.22-.04-.45-.2-.6l-1.37-1.33c-.41-.4-.18-1.08,.38-1.17l1.89-.27c.22-.03,.41-.17,.51-.37l.85-1.71c.25-.51,.97-.51,1.23,0Z"/><path class="v" d="M321.49,81.68l.85,1.71c.1,.2,.29,.34,.51,.37l1.89,.27c.56,.08,.78,.77,.38,1.17l-1.37,1.33c-.16,.16-.23,.38-.2,.6l.32,1.88c.1,.56-.49,.98-.99,.72l-1.69-.89c-.2-.1-.44-.1-.64,0l-1.69,.89c-.5,.26-1.09-.16-.99-.72l.32-1.88c.04-.22-.04-.45-.2-.6l-1.37-1.33c-.41-.4-.18-1.08,.38-1.17l1.89-.27c.22-.03,.41-.17,.51-.37l.85-1.71c.25-.51,.97-.51,1.23,0Z"/><path class="v" d="M94.81,101.67l.51,1.02c.06,.12,.17,.2,.31,.22l1.13,.16c.33,.05,.47,.46,.23,.7l-.82,.8c-.1,.09-.14,.23-.12,.36l.19,1.13c.06,.33-.29,.59-.59,.43l-1.01-.53c-.12-.06-.26-.06-.38,0l-1.01,.53c-.3,.16-.65-.1-.59-.43l.19-1.13c.02-.13-.02-.27-.12-.36l-.82-.8c-.24-.24-.11-.65,.23-.7l1.13-.16c.13-.02,.25-.1,.31-.22l.51-1.02c.15-.3,.58-.3,.73,0Z"/><path class="v" d="M64.17,232.7l.51,1.02c.06,.12,.17,.2,.31,.22l1.13,.16c.34,.05,.47,.46,.23,.7l-.82,.8c-.1,.09-.14,.23-.12,.36l.19,1.13c.06,.33-.29,.59-.59,.43l-1.01-.53c-.12-.06-.26-.06-.38,0l-1.01,.53c-.3,.16-.65-.1-.59-.43l.19-1.13c.02-.13-.02-.27-.12-.36l-.82-.8c-.24-.24-.11-.65,.23-.7l1.13-.16c.13-.02,.25-.1,.31-.22l.51-1.02c.15-.3,.58-.3,.73,0Z"/><path class="v" d="M378.29,13.9l.51,1.02c.06,.12,.17,.2,.31,.22l1.13,.16c.33,.05,.47,.46,.23,.7l-.82,.8c-.1,.09-.14,.23-.12,.36l.19,1.13c.06,.33-.29,.59-.59,.43l-1.01-.53c-.12-.06-.26-.06-.38,0l-1.01,.53c-.3,.16-.65-.1-.59-.43l.19-1.13c.02-.13-.02-.27-.12-.36l-.82-.8c-.24-.24-.11-.65,.23-.7l1.13-.16c.13-.02,.25-.1,.31-.22l.51-1.02c.15-.3,.58-.3,.73,0Z"/><path class="v" d="M369.6,202.62l.87,1.77c.1,.21,.3,.35,.53,.39l1.96,.28c.58,.08,.81,.8,.39,1.21l-1.41,1.38c-.17,.16-.24,.4-.2,.63l.33,1.95c.1,.58-.51,1.02-1.03,.75l-1.75-.92c-.21-.11-.45-.11-.66,0l-1.75,.92c-.52,.27-1.12-.17-1.03-.75l.33-1.95c.04-.23-.04-.46-.2-.63l-1.41-1.38c-.42-.41-.19-1.12,.39-1.21l1.96-.28c.23-.03,.43-.18,.53-.39l.87-1.77c.26-.53,1.01-.53,1.27,0Z"/><path class="v" d="M262.48,36.88c0,.73-.59,1.33-1.33,1.33s-1.33-.59-1.33-1.33,.59-1.33,1.33-1.33,1.33,.59,1.33,1.33Z"/><path class="v" d="M300.65,294.66c0,.73-.59,1.33-1.33,1.33s-1.33-.59-1.33-1.33,.59-1.33,1.33-1.33,1.33,.59,1.33,1.33Z"/><path class="v" d="M76.64,20.31c0,3.14-2.55,5.69-5.69,5.69s-5.69-2.55-5.69-5.69,2.55-5.69,5.69-5.69,5.69,2.55,5.69,5.69Z"/><path class="v" d="M364.36,125.11c0,3.14-2.55,5.69-5.69,5.69s-5.69-2.55-5.69-5.69,2.55-5.69,5.69-5.69,5.69,2.55,5.69,5.69Z"/><g><path class="v" d="M130.47,57.9c3.79,.64,7.36,.93,10.41,.89-2.68,3.13-6.89,4.82-11.25,4.08-4.37-.74-7.79-3.72-9.31-7.56,2.87,1.04,6.35,1.95,10.15,2.59Z"/><path class="v" d="M132.25,47.41c-4.44-.75-8.61-1.02-11.96-.84,2-5.33,7.56-8.66,13.4-7.67,5.83,.99,9.98,5.96,10.12,11.65-3.1-1.27-7.12-2.38-11.56-3.14Z"/><ellipse class="v" cx="131.66" cy="50.89" rx="4.2" ry="19.13" transform="translate(59.54 172.22) rotate(-80.41)"/><ellipse class="v" cx="286.37" cy="211.65" rx="4.2" ry="19.13" transform="translate(29.96 458.76) rotate(-80.41)"/></g></g></g><g id="b"><ellipse id="c" class="o" cx="193.89" cy="353.24" rx="193.89" ry="11.32"/></g><g id="d"><g><g><g><path class="u" d="M198.24,69.83l-.69-.55c3.15-3.96,6.45-7.76,9.83-11.28l.64,.61c-3.36,3.5-6.65,7.27-9.78,11.21Z"/><rect class="u" x="190.64" y="74.98" width="5.19" height=".88" transform="translate(14.07 179.95) rotate(-51.58)"/><path class="v" d="M263.9,116.22c21.73-34.94,24.69-69.35,8.87-80.49-15.82-11.14-47.22,3.24-72.8,35.47l-73.12,92.17,74.92,52.76,62.13-99.91Z"/><path class="h" d="M255.34,110.2l-63.6,98.87-7.78-14.87,63.17-90.19c17.86-25.51,27.86-48.82,27.91-61.8,0-1.17,1.67-1.46,2.06-.35,4.5,12.93-3.3,39.66-21.76,68.35Z"/><g><ellipse class="u" cx="164.3" cy="189.75" rx="31.81" ry="45.82" transform="translate(-85.44 214.84) rotate(-54.85)"/><ellipse class="i" cx="164.3" cy="189.75" rx="31.81" ry="45.82" transform="translate(-85.44 214.84) rotate(-54.85)"/></g><path class="m" d="M193.99,147.43c-16.44-11.58-35.09-14.88-46.99-9.47l-18.55,23.38c10.98-12.28,34.51-11.44,54.17,2.4,19.67,13.85,28.39,35.72,20.51,50.2l15.57-25.04c1.33-13.09-8.1-29.77-24.71-41.47Z"/><g><g><path class="q" d="M220.32,72.06c-4.56,7.22-7.97,20.73,5.56,30.25,13.53,9.53,25.1,1.76,30.36-4.96l-35.92-25.29Z"/><path class="f" d="M259.43,88.98c-1.56,12.9-16.46,22.31-32.11,11.28-15.65-11.02-11.82-28.22-.2-34.04,7.16-3.58,16.27-2.05,22.51,2.34,6.24,4.39,10.75,12.46,9.79,20.41Z"/><g><path class="u" d="M229.45,97.24c-6.09-4.29-9.2-9.88-8.76-15.75,.38-5.07,3.48-9.66,8.09-11.97,5.44-2.72,13.15-1.87,18.73,2.06,5.59,3.94,8.98,10.9,8.25,16.94-.62,5.12-3.89,9.58-8.54,11.65-5.37,2.39-11.69,1.35-17.78-2.94Z"/><path class="p" d="M229.45,97.24c-6.09-4.29-9.2-9.88-8.76-15.75,.38-5.07,3.48-9.66,8.09-11.97,5.44-2.72,13.15-1.87,18.73,2.06,5.59,3.94,8.98,10.9,8.25,16.94-.62,5.12-3.89,9.58-8.54,11.65-5.37,2.39-11.69,1.35-17.78-2.94Z"/></g><g><path class="u" d="M229.45,97.24c-6.09-4.29-9.31-9.73-9.07-15.31,.21-4.83,3.09-9.1,7.52-11.15,5.23-2.42,12.79-1.36,18.37,2.57,5.59,3.94,9.13,10.69,8.61,16.43-.44,4.86-3.49,9.02-7.97,10.84-5.17,2.11-11.38,.91-17.47-3.38Z"/><path class="l" d="M229.45,97.24c-6.09-4.29-9.31-9.73-9.07-15.31,.21-4.83,3.09-9.1,7.52-11.15,5.23-2.42,12.79-1.36,18.37,2.57,5.59,3.94,9.13,10.69,8.61,16.43-.44,4.86-3.49,9.02-7.97,10.84-5.17,2.11-11.38,.91-17.47-3.38Z"/></g></g><path class="g" d="M250.5,77.31l-28.14,12.41c-1.42-2.48-2.09-5.11-1.98-7.79,.06-1.32,.31-2.59,.75-3.78l18.17-8.01c2.46,.63,4.86,1.71,6.98,3.2,1.59,1.12,3.02,2.46,4.23,3.96Z"/><path class="g" d="M254.54,85.32l-25.83,11.38c-1.64-1.23-3.05-2.53-4.22-3.92l28.1-12.4c.89,1.6,1.56,3.28,1.94,4.94Z"/></g><path class="r" d="M282.7,63.05c-.86-6.9-6.16-14.88-14.54-20.78-8.37-5.9-17.67-8.2-24.46-6.69,11.55-4.71,21.9-4.9,29.07,.15,7.16,5.05,10.48,14.86,9.94,27.32Z"/><g><g><ellipse class="s" cx="171.2" cy="179.96" rx="9.91" ry="13.95" transform="translate(-74.51 216.32) rotate(-54.85)"/><path class="s" d="M152.85,183.78c-3.15,4.47-10.81,4.51-17.11,.07-6.3-4.44-8.85-11.66-5.7-16.13s10.81-4.51,17.11-.07c6.3,4.44,8.85,11.66,5.7,16.13Z"/><path class="s" d="M196.6,214.59c-3.15,4.47-10.81,4.51-17.11,.07-6.3-4.44-8.85-11.66-5.7-16.13,3.15-4.47,10.81-4.51,17.11-.07s8.85,11.66,5.7,16.13Z"/><path class="s" d="M166.84,210.37c-3.15,4.47-10.81,4.51-17.11,.07-6.3-4.44-8.85-11.66-5.7-16.13,3.15-4.47,10.81-4.51,17.11-.07,6.3,4.44,8.85,11.66,5.7,16.13Z"/></g><g><path class="s" d="M182.61,187.99c-.33,.47-.73,.9-1.15,1.28,1.75-4.46-.9-10.65-6.52-14.61-5.63-3.96-12.34-4.37-15.95-1.22,.21-.53,.48-1.04,.81-1.52,3.15-4.47,10.81-4.5,17.11-.07,6.3,4.43,8.85,11.66,5.7,16.13Z"/><path class="s" d="M152.84,183.78c-.33,.47-.72,.9-1.15,1.28,1.75-4.47-.88-10.65-6.52-14.62-5.63-3.96-12.34-4.37-15.96-1.21,.21-.53,.48-1.04,.81-1.52,3.15-4.48,10.81-4.5,17.11-.07,6.31,4.44,8.85,11.66,5.7,16.13Z"/><path class="s" d="M196.6,214.59c-.33,.47-.72,.9-1.15,1.28,1.75-4.47-.89-10.65-6.52-14.62-5.63-3.97-12.34-4.37-15.96-1.21,.21-.53,.48-1.04,.81-1.52,3.15-4.48,10.81-4.51,17.11-.07,6.3,4.43,8.86,11.66,5.7,16.13Z"/><path class="s" d="M166.84,210.37c-.33,.47-.72,.9-1.15,1.28,1.75-4.46-.89-10.65-6.52-14.62-5.63-3.96-12.34-4.36-15.96-1.21,.21-.54,.48-1.04,.81-1.52,3.15-4.48,10.81-4.5,17.11-.07,6.3,4.43,8.85,11.66,5.7,16.13Z"/></g></g></g><g><g><path class="v" d="M176.46,105.23s-13.49,17.52-25.25,32.6c-3.37,4.32-8.77,6.38-14.21,5.71-10.28-1.27-27.04,6.02-27.04,6.02,0,0,31.69-52.01,66.5-44.32Z"/><path class="t" d="M176.46,105.23s-13.49,17.52-25.25,32.6c-3.37,4.32-8.77,6.38-14.21,5.71-10.28-1.27-27.04,6.02-27.04,6.02,0,0,31.69-52.01,66.5-44.32Z"/></g><g><path class="v" d="M239.78,149.82s-11.94,18.61-22.18,34.76c-2.93,4.63-3.05,10.41-.58,15.3,4.66,9.25,3.45,27.49,3.45,27.49,0,0,38.28-47.36,19.32-77.55Z"/><path class="k" d="M239.78,149.82s-11.94,18.61-22.18,34.76c-2.93,4.63-3.05,10.41-.58,15.3,4.66,9.25,3.45,27.49,3.45,27.49,0,0,38.28-47.36,19.32-77.55Z"/></g></g></g><g><path class="u" d="M283.4,283.61c12.44-30.56-41.49-39.22-62.88-31.55-21.39,7.67-43.16,13.37-44.02-7.08-.86-20.45,15.62-33.13,7.78-37.85-4.36-2.62-5.6,2.04-7.74,8.75-6.59,20.64-43.85,25.57-26.71,55.45,17.14,29.89,8.04,23.4-20.85,35.39-28.89,11.99-14.03,46.52,13.91,46.52h168.1c77.04,0,4.1-147.46-27.59-69.63Z"/><path class="n" d="M283.4,283.61c12.44-30.56-41.49-39.22-62.88-31.55-21.39,7.67-43.16,13.37-44.02-7.08-.86-20.45,15.62-33.13,7.78-37.85-4.36-2.62-5.6,2.04-7.74,8.75-6.59,20.64-43.85,25.57-26.71,55.45,17.14,29.89,8.04,23.4-20.85,35.39-28.89,11.99-14.03,46.52,13.91,46.52h168.1c77.04,0,4.1-147.46-27.59-69.63Z"/></g><g><path class="u" d="M141.44,177.09c-2.24-7.78-14.36,2.02-26.31,13.84-12.04,11.91-17.83,38.9-29.37,52.96-11.62,14.16-44.62,26.88-31.69,48.08,19.07,31.26-24.76,61.26,27.15,61.26h106.47c19.47,0,40.58-23.81,10.26-40.03-30.32-16.22-75.74,21.56-87.99-14.45-6.08-17.87,15.96-9.67,5.76-38.93-10.2-29.26-9.54-37.23-4.33-50.27,12.67-31.72,33.45-20.65,30.05-32.46Z"/><path class="n" d="M141.44,177.09c-2.24-7.78-14.36,2.02-26.31,13.84-12.04,11.91-17.83,38.9-29.37,52.96-11.62,14.16-44.62,26.88-31.69,48.08,19.07,31.26-24.76,61.26,27.15,61.26h106.47c19.47,0,40.58-23.81,10.26-40.03-30.32-16.22-75.74,21.56-87.99-14.45-6.08-17.87,15.96-9.67,5.76-38.93-10.2-29.26-9.54-37.23-4.33-50.27,12.67-31.72,33.45-20.65,30.05-32.46Z"/></g><g><path class="u" d="M163.51,180.68c2.64-4.82,11.7-1.93,11.5,4.38-.2,6.3-23.66,14.58-19.3,36.37s46.24,23.36,56.07,45.18c9.83,21.83-28.24,24.89-16.93,38.54,11.31,13.65,46.42-17.7,71.4-9.63,24.97,8.06,49.94,57.72,4.13,57.72H129.21c-30.7,0-53.11-63.39-23.62-89.46,29.49-26.07,5.7-17.62,16.71-34.33,11.01-16.71,31.07-30.28,41.19-48.76Z"/><path class="j" d="M163.51,180.68c2.64-4.82,11.7-1.93,11.5,4.38-.2,6.3-23.66,14.58-19.3,36.37s46.24,23.36,56.07,45.18c9.83,21.83-28.24,24.89-16.93,38.54,11.31,13.65,46.42-17.7,71.4-9.63,24.97,8.06,49.94,57.72,4.13,57.72H129.21c-30.7,0-53.11-63.39-23.62-89.46,29.49-26.07,5.7-17.62,16.71-34.33,11.01-16.71,31.07-30.28,41.19-48.76Z"/></g></g></g></svg>