<svg id="Calque_1" data-name="Calque 1" xmlns="http://www.w3.org/2000/svg" viewBox="0 0 49.4 45.11"><defs><style>.cls-1,.cls-6,.cls-7{fill:#943e00;}.cls-2{fill:#946300;}.cls-3{fill:#948300;}.cls-4{fill:#ff0;}.cls-5{fill:none;stroke:#ddd800;stroke-linecap:round;stroke-linejoin:round;stroke-width:0.25px;}.cls-6{font-size:21px;font-family:CenturyGothic-Bold, Century Gothic;font-weight:700;letter-spacing:0.13em;}.cls-7{font-size:3px;font-family:CenturyGothic, Century Gothic;letter-spacing:0.33em;}</style></defs><path class="cls-1" d="M24.15,3S4.76.94,0,10.81L9.88,39.45s9.91-6.75,14.27-3.86c4.36-2.89,14.28,3.86,14.28,3.86L48.3,10.81C43.54.94,24.15,3,24.15,3Z"/><path class="cls-2" d="M24.15,1.58S4.76-.48,0,9.39L9.88,38s9.91-6.75,14.27-3.86C28.51,31.28,38.43,38,38.43,38L48.3,9.39C43.54-.48,24.15,1.58,24.15,1.58Z"/><path class="cls-3" d="M24.15,1.09S5.14-.94.47,8.74l9.68,28.09s9.73-6.63,14-3.79c4.28-2.84,14,3.79,14,3.79L47.83,8.74C43.17-.94,24.15,1.09,24.15,1.09Z"/><path class="cls-4" d="M24.15.17S5.3-1.83.68,7.77l9.6,27.83S19.91,29,24.15,31.85C28.39,29,38,35.6,38,35.6L47.62,7.77C43-1.83,24.15.17,24.15.17Z"/><line class="cls-5" x1="24.15" y1="31.71" x2="24.15" y2="0.15"/><text class="cls-6" transform="translate(5.3 24.3)">IMT</text><text class="cls-7" transform="translate(0 44.19)">Intitut Marie Thérèse</text></svg>