<?xml version="1.0" encoding="UTF-8"?><svg xmlns="http://www.w3.org/2000/svg" xmlns:xlink="http://www.w3.org/1999/xlink" viewBox="0 0 2238.01 1386.39"><defs><style>.g{fill:#cc6d00;}.h{isolation:isolate;}.i{fill:url(#f);}.j{fill:url(#e);mix-blend-mode:screen;}.k{clip-path:url(#b);}.l{fill:#174171;}.m{clip-path:url(#c);}.n{fill:#3a7197;}.o{clip-path:url(#d);}.p{fill:#072541;}.q{fill:none;}.r{fill:#5f91ff;}.s{fill:#0961b6;}</style><clipPath id="b"><rect class="q" width="2238.01" height="1386.39"/></clipPath><clipPath id="c"><path class="s" d="M560.17,467.79l557.89-28.96c32.78-1.7,58.48-28.77,58.48-61.59h0c0-32.85-25.76-59.94-58.57-61.6l-557.8-28.13v180.27Z"/></clipPath><clipPath id="d"><path class="s" d="M1141.08,421.59l269.83-10.5c17.13-.67,30.67-14.75,30.67-31.89h0c0-17-13.33-31.02-30.31-31.87l-270.19-13.62v87.89Z"/></clipPath><linearGradient id="e" x1="2029.5" y1="309.21" x2="1851.57" y2="449.3" gradientTransform="translate(2499.9) rotate(-180) scale(1 -1)" gradientUnits="userSpaceOnUse"><stop offset="0" stop-color="#fff"/><stop offset="1" stop-color="#63a6db"/></linearGradient><linearGradient id="f" x1="834.93" y1="391.35" x2="829.53" y2="511.78" xlink:href="#e"/></defs><g class="h"><g id="a"><g class="k"><g><g><polygon class="r" points="2238.01 728.8 1881.53 712.73 1501.88 781.78 1556.18 798.3 1688.81 853.74 1983.44 803.75 2238.01 841.44 2238.01 728.8"/><polygon class="s" points="1501.88 781.78 1561.79 819 1667.45 903.41 1794.37 913.41 1909.08 953.05 2029.73 928.46 2117.23 1011.73 2238.01 1093.03 2238.01 841.44 1983.44 803.75 1688.81 853.74 1556.18 798.3 1501.88 781.78"/></g><g><path class="s" d="M1419.67,401.26l144.97-5.64c9.2-.36,16.48-7.92,16.48-17.13h0c0-9.13-7.16-16.66-16.28-17.12l-145.16-7.32v47.22Z"/><path class="s" d="M1568.18,389.01l69.74-2.71c4.43-.17,7.93-3.81,7.93-8.24h0c0-4.39-3.44-8.02-7.83-8.24l-69.84-3.52v22.72Z"/><path class="s" d="M1640.09,383.33l34.87-1.36c2.21-.09,3.96-1.91,3.96-4.12h0c0-2.2-1.72-4.01-3.92-4.12l-34.92-1.76v11.36Z"/><path class="r" d="M1432.73,401.26c7.29-4,10.36-12.96,10.77-20.87,.41-5.89-1.16-11.97-4.28-16.93-2.54-3.92-5.87-7.33-9.93-9.43,6.46,7.34,10.65,16.45,10.26,26.2-.16,7.46-1.83,15.22-6.83,21.02h0Z"/><g><g><path class="s" d="M560.17,467.79l557.89-28.96c32.78-1.7,58.48-28.77,58.48-61.59h0c0-32.85-25.76-59.94-58.57-61.6l-557.8-28.13v180.27Z"/><g class="m"><path class="r" d="M1169.16,331.31l-602.5-19.59s4.36-15.66-20.14-33.59l601.05,33,21.59,20.18Z"/></g></g><g><path class="s" d="M1141.08,421.59l269.83-10.5c17.13-.67,30.67-14.75,30.67-31.89h0c0-17-13.33-31.02-30.31-31.87l-270.19-13.62v87.89Z"/><g class="o"><path class="r" d="M1432.05,351.47l-268.35-10.15-8.91-12.7,259.56,16.17s11.35-.67,17.69,6.68Z"/></g></g><ellipse class="n" cx="557.33" cy="377.65" rx="48.51" ry="90.14"/><ellipse class="j" cx="557.33" cy="377.65" rx="48.51" ry="90.14"/><path class="r" d="M1159.45,334.63c13.62,21.46,20.3,41.97,10.05,66.4-2.99,7.24-6.95,14.16-11.79,20.56,6.12-5.31,10.98-12.03,14.62-19.28,5.56-11.03,7.8-24.03,4.89-36.13-2.9-11.87-9.29-22.91-17.77-31.55h0Z"/></g><path class="r" d="M1577.79,388.63c5.13-5.13,4.84-17.65-1.36-21.93,4.92,5.07,5.14,16.19,1.36,21.93h0Z"/><path class="r" d="M1644.06,383.18c2.92-2.87,2.59-8.58-.72-11.04,.68,.75,1.21,1.61,1.57,2.53,1.05,2.72,.85,6.1-.85,8.51h0Z"/></g><g><g><path class="s" d="M1713.38,521.14l11.68,250.04-16.26-.2s-34.34-168.08-36.9-261.5l41.48,11.65Z"/><path class="s" d="M1684.89,521.14l11.68,250.04-16.26-.2s-34.34-168.08-36.9-261.5l41.48,11.65Z"/><path class="p" d="M1683.8,770.35l-6.96,6.71-9.42,3.08c-2.81,.92-5.23,2.76-6.87,5.22h25.93l1.78-2.68,2.04,2.68h4.08c1.01-4.95,1.01-10.06,0-15.01h-10.57Z"/><path class="p" d="M1712.46,770.35l-6.96,6.71-9.42,3.08c-2.81,.92-5.23,2.76-6.87,5.22h25.93l1.78-2.68,2.04,2.68h4.08c1.01-4.95,1.01-10.06,0-15.01h-10.57Z"/><g><path class="g" d="M1679.59,367.92l23.85,11.16-18.22,45.8-14.06-6.58,8.38-17.91-5.32-1.73c-2.85-.98-7.28-4.79-6.01-7.52l3.61-4.75s-3.58-1.69-3.61-2.69,6.62-5.87,6.62-5.87l4.75-9.9Z"/><path class="p" d="M1698.77,365.79c1.5,.5,2.89,1.3,4.08,2.34h0c4.86,4.24,5.48,11.57,1.41,16.58l-5.99,7.36s-1.8-1.49-2.86-4.02c.8,.16,1.8-.16,2.59-.91,1.13-1.07,1.41-2.61,.63-3.44-.78-.83-2.34-.63-3.47,.43-.19,.18-2.26,2.64-2.41,2.84-.02-.6-.81-5.61-2.24-7.05-1.12-2.57-.33-4.62-.33-5.61l-11.62-4.28s.99-2.33,4.02-5.19c5.06-3.74,16.18,.94,16.18,.94Z"/></g><path class="s" d="M1676.17,407.14s-37.05,34.29-24.95,142.49l-16.27-4.23s-23.82-118.64,41.22-138.27Z"/><path class="i" d="M1676.17,407.14s-47.84,16.98-28.45,121.71c0,0,13.2,9.86,49.19,5.74,0,0-12.05-43.07-11.21-62.77,.84-19.71,6.46-58.65,6.46-58.65l-15.98-6.03Z"/><path class="s" d="M1711.11,463.62c.25,8.51,.38,17.03,1.4,25.49,1.51,12.45,4.42,24.73,8.45,36.6,3.22,9.47,6.99,19.09,12.07,27.75-24.43,16.06-44.45,12.42-44.45,12.42-52.41-95.91-4.48-156.15-4.48-156.15,.09,.03,.18,.05,.27,.08,9.74,2.87,17.87,9.98,22.14,19.17,4.87,10.5,4.27,23.32,4.61,34.65Z"/><path class="l" d="M1676.17,407.14c-.51-.16-3.89,5.16-4.16,5.56-3.42,4.99-6.43,10.26-9.05,15.71-3.72,7.74-6.65,15.86-8.64,24.22-1,4.21-1.77,8.48-2.29,12.77-.47,3.93-.97,8.01-.76,12.02,.08,1.49,.46,9.3,2.91,9.23,1.28-.04,1.59-2.68,1.77-3.58,.9-4.39,.63-8.82,.98-13.26,.37-4.71,1.01-9.39,1.88-14.03,2.62-13.98,8.22-31.93,20.12-47.76l-2.76-.9Z"/></g><path class="s" d="M1672.26,408.47l-78.67,25.92s-16.28-16.76-66.85-35.25l-6.03,7.1,65.9,48.52c3.78,1.9,7.96,2.89,12.19,2.89h0c1.48,0,2.96-.12,4.42-.36l36.91-6.07s6.68-20.54,9.16-24.5,22.99-18.25,22.99-18.25Z"/><path class="g" d="M1525.59,400.49l-.14-3.35-5.52,.21-2.27-2.33-1.12-2.51c-.38-.85-1.23-1.4-2.16-1.4h0l1.71,6.39,1.46,2.37c.86,1.4,1.93,2.65,3.18,3.72l1.29,1.1,3.58-4.21Z"/><path class="s" d="M1694.24,414.43l59.09,47.81c3.76,3.06,6.66,7.04,8.44,11.55,.66,1.68,1.17,3.43,1.5,5.21l14.12,75.89-9.83,3.25s-17.1-34.65-27.64-77.52c-10.02-4.5-21.01-10.1-32.56-17.06-10.74-6.47-20.2-13.07-28.41-19.38-.13-3.12,.06-8.34,15.3-29.75Z"/><g><path class="s" d="M1740.46,580.36l25.64-8.44-1.22-3.72c-.81-2.45,.53-5.11,2.99-5.92l12.03-3.96c2.45-.81,5.11,.53,5.92,2.99l1.22,3.72,25.64-8.44c1.52-.5,3.16,.33,3.66,1.85l14.91,45.31c.5,1.52-.33,3.16-1.85,3.66l-72.21,23.77c-1.52,.5-3.16-.33-3.66-1.85l-14.91-45.31c-.5-1.52,.33-3.16,1.85-3.66Zm43.6-18.47c-.49-1.49-2.1-2.3-3.59-1.81l-12.03,3.96c-1.49,.49-2.3,2.1-1.81,3.59l1.22,3.72,17.43-5.74-1.22-3.72Z"/><rect class="l" x="1782.16" y="590.27" width="7.99" height="6.43" rx="1.93" ry="1.93" transform="translate(3668.32 598.82) rotate(161.78)"/></g><path class="g" d="M1769.34,557.56l-.25,4.33,1.57,1.42-2.22,.73,2.28,1.16c1.65,.84,3.61,.8,5.23-.11h0c1.77-1,2.85-2.88,2.81-4.91l-.03-1.46-2.41-3.47-6.98,2.31Z"/></g><path class="r" d="M737.91,707.79h288.98c-8.01-9.02-20.5-14.99-32.56-14.67-9.43,.25-18.67,3.71-28.08,3.07-12.59-.85-23.4-8.78-34.84-14.11-17.47-8.14-38.59-10.2-55.89-1.69-10.85,5.34-20.4,14.72-32.48,15.31-9.18,.45-17.66-4.35-26.21-7.72-8.55-3.36-19.11-5.08-26.27,.69-2.71,2.18-4.65,5.26-7.54,7.21-8.08,5.47-18.89,0-28.65,.41-7.13,.29-12.39,5.64-16.48,11.49Z"/><path class="r" d="M215.18,110.57h192.73c-5.9-6.58-14.92-10.56-23.76-10.88-7.74-.28-15.66,2.15-23.11,.08-6.24-1.73-11.2-6.36-16.9-9.42-8.81-4.73-19.62-5.57-29.06-2.26-10.3,3.62-18.93,11.87-29.76,13.22-9.49,1.19-18.71-3.18-28.16-4.66-14.74-2.31-31.54,3.27-41.98,13.93Z"/><path class="r" d="M1397.38,185.97h154.69c-2.49-5.7-8.26-7.01-14.48-6.98-6.22,.03-12.46,1.61-18.6,.62-6.51-1.05-12.19-4.86-18.3-7.36-9.04-3.71-19.25-4.5-28.76-2.24-11.56,2.75-22.14,9.86-34.02,10.04-6.72,.1-13.27-2.06-19.97-2.56s-16.99,2.79-20.56,8.48Z"/></g></g></g></g></svg>