<?xml version="1.0" encoding="UTF-8"?><svg id="a" xmlns="http://www.w3.org/2000/svg" viewBox="0 0 743.87 643.42"><defs><style>.b{stroke:#021060;}.b,.c,.d,.e,.f,.g,.h,.i,.j,.k,.l,.m,.n{fill:none;stroke-miterlimit:10;}.b,.d,.e,.g,.h,.i,.j,.k,.l,.m,.n{stroke-width:1.5px;}.c{stroke:#010858;stroke-width:1.5px;}.d{stroke:#0751a5;}.e{stroke:#07499c;}.f{stroke:#021869;stroke-width:1.5px;}.g{stroke:#05398b;}.h{stroke:#032071;}.i{stroke:#0961b6;}.j{stroke:#0859ad;}.k{stroke:#064194;}.l{stroke:#053183;}.m{stroke:#04287a;}.n{stroke:#00004f;}</style></defs><path class="n" d="M537.9,285.88c-3.03,2.17-11.27,5.2-9.53,16.03s15.17,6.07,15.17,9.53-6.5,10.4-2.6,15.17,38.04,6.93,32.02-2.82,18.68-9.32,18.68-20.15-11.27-20.37-21.67-16.9-1.3,18.63-10.4,16.03-3.47-24.27-21.67-16.9Z"/><path class="c" d="M498.96,328.32c3.5,10.37,19.7,5.89,23.31,9.7,2.82,2.98-1.35,10.51,5.37,14.04,10.85,5.7,50.59,5.52,46.97-5.27,.84-7.94,10.21-12.07,17.06-20.23,6.91-8.19,10.11-19.18,10.73-28.46,.95-14.19-12.49-40.28-49.69-36.02-14.39,3.31-10.56,17.23-22.92,16.47-16.66-1.03-17.28-16.07-34.47-4.01-2.12,8.81-7.7,11.73-9.16,21.93s5.45,25.33,12.8,31.86Z"/><path class="b" d="M471.02,355.7c5.27,9.9,23.72,5.89,31.46,9.86,5.16,2.65,4.4,10,13.35,12.9,18.49,6,63.15,4.11,61.93-7.72,4.68-11.03,18.83-16.98,27.14-30.85,8.37-13.9,8.45-33.27,9.76-46.39,1.75-17.56-13.72-60.19-77.72-55.14-18.39,3.16-19.93,16.27-35.45,16.91-24.36,.99-31.09-7.88-47.27,8.87-2.74,16.55-11.2,21.12-11.87,39.21-.73,18.16,14.86,44.78,28.68,52.34Z"/><path class="f" d="M443.15,383.16c7.04,9.43,27.73,6.14,39.6,10.03,7.52,2.46,10.17,9.31,21.32,11.77,26.22,5.81,75.71,2.7,76.89-10.18,8.51-14.13,27.45-21.88,37.23-41.46,9.84-19.61,6.75-47.37,8.78-64.32,2.51-20.92-14.95-80.1-105.75-74.25-22.38,3-29.29,15.45-47.97,17.34-32.03,3.24-44.91,.31-60.08,21.76-3.37,24.3-14.68,30.51-14.58,56.49,.04,26.04,24.27,64.23,44.56,72.82Z"/><path class="h" d="M415.3,410.64c8.81,8.96,31.77,6.46,47.75,10.19,9.91,2.32,15.91,8.54,29.29,10.64,33.93,5.34,88.26,1.29,91.85-12.63,12.34-17.23,36.06-26.78,47.31-52.08,11.3-25.32,5.02-61.48,7.81-82.25,3.25-24.3-16.18-100.02-133.78-93.37-26.38,2.85-38.63,14.68-60.49,17.78-39.67,5.62-58.72,8.5-72.88,34.64-3.99,32.04-18.16,39.89-17.3,73.77,.82,33.92,33.69,83.68,60.44,93.3Z"/><path class="m" d="M387.47,438.18c10.58,8.5,35.83,6.8,55.9,10.36,12.32,2.18,21.62,7.74,37.26,9.51,41.61,4.73,98.71-1.15,106.8-15.08,13.05-22.46,44.68-31.68,57.4-62.69,12.76-31.03,3.29-75.58,6.83-100.18,3.98-27.67-17.41-119.93-161.8-112.49-30.37,2.69-47.96,13.94-73.02,18.21-47.28,8.07-72.53,16.69-85.69,47.53-4.62,39.79-21.64,49.28-20.01,91.05,1.59,41.81,43.1,103.12,76.32,113.78Z"/><path class="l" d="M359.36,465.62c13.38,6.16,39.91,7.16,64.04,10.53,14.74,2.06,27.32,6.92,45.24,8.38,49.26,4.02,111.64-2.57,121.76-17.54,17.26-25.51,53.3-36.59,67.49-73.31,14.22-36.74,1.55-89.69,5.85-118.11,4.71-31.04-18.63-139.84-189.83-131.61-34.37,2.54-57.27,13.21-85.54,18.65-54.87,10.56-86.34,24.88-98.49,60.42-5.25,47.53-25.12,58.67-22.72,108.33,2.36,49.69,54.62,116.96,92.21,134.26Z"/><path class="g" d="M331.03,493.03c14.87,5.94,44,7.52,72.19,10.69,17.17,1.93,33,6.1,53.21,7.25,56.89,3.26,124.54-3.91,136.72-19.99,21.53-28.42,61.92-41.49,77.57-83.92,15.69-42.45-.2-103.8,4.88-136.04,5.43-34.42-19.86-159.75-217.86-150.73-38.36,2.38-66.57,12.49-98.06,19.09-62.45,13.08-100.16,33.07-111.3,73.3-5.87,55.28-28.6,68.06-25.44,125.61,3.14,57.58,63.63,136.97,108.09,154.74Z"/><path class="k" d="M302.68,520.41c16.41,5.76,48.1,7.88,80.33,10.86,19.61,1.81,38.67,5.26,61.18,6.12,64.51,2.46,137.42-5.19,151.68-22.44,25.82-31.24,70.53-46.39,87.66-94.54,17.15-48.16-1.96-117.91,3.9-153.97,6.15-37.8-21.09-179.67-245.89-169.85-42.36,2.23-75.87,11.77-110.59,19.52-70.01,15.63-113.97,41.26-124.1,86.19-6.5,63.02-32.08,77.45-28.15,142.88,3.91,65.46,72.65,157.19,123.97,175.22Z"/><path class="e" d="M274.31,547.75c18,5.61,52.2,8.25,88.48,11.02,22.05,1.69,44.33,4.43,69.16,4.99,72.11,1.63,150.27-6.43,166.63-24.9,30.12-33.99,79.15-51.29,97.74-105.15,18.61-53.87-3.72-132.02,2.93-171.89,6.86-41.18-22.32-199.58-273.92-188.96-46.35,2.08-85.17,11.06-123.11,19.96-77.57,18.19-127.78,49.45-136.91,99.07-7.12,70.77-35.56,86.84-30.86,160.16,4.68,73.35,81.7,177.58,139.85,195.7Z"/><path class="d" d="M245.93,575.05c19.63,5.47,56.31,8.62,96.63,11.19,24.49,1.56,49.99,3.59,77.13,3.86,79.71,.79,163.1-7.64,181.59-27.35,34.42-36.69,87.77-56.2,107.83-115.77,20.07-59.58-5.55-146.15,1.95-189.82,7.5-44.57-23.54-219.49-301.94-208.08-50.34,1.92-94.46,10.35-135.63,20.4-85.12,20.77-141.6,57.64-149.71,111.96-7.75,78.51-39.04,96.22-33.57,177.44,5.45,81.23,90.77,198.07,155.74,216.18Z"/><path class="j" d="M217.53,602.27c21.28,5.34,60.41,8.98,104.77,11.35,26.94,1.44,55.64,3.02,85.1,2.73,87.29-.86,175.92-8.82,196.55-29.8,38.71-39.36,96.38-61.1,117.91-126.38,21.54-65.29-7.27-160.26,.98-207.75,8.25-47.94-24.77-239.41-329.97-227.2-54.34,1.77-103.75,9.64-148.16,20.83-92.66,23.35-155.41,65.83-162.52,124.85-8.37,86.26-42.52,105.61-36.29,194.72,6.23,89.12,99.87,218.64,171.62,236.66Z"/><path class="i" d="M376.63,1.33C195.63,6.33,49.63,66.33,40.63,160.33S-5.37,275.33,1.63,372.33s109,239.27,187.5,257.14,374.5,22.86,417.5-19.14,105-66,128-137-9-174.36,0-225.68S708.63-11.67,376.63,1.33Z"/></svg>