<?xml version="1.0" encoding="UTF-8"?><svg id="a" xmlns="http://www.w3.org/2000/svg" xmlns:xlink="http://www.w3.org/1999/xlink" viewBox="0 0 1754 700"><defs><style>.c{clip-path:url(#b);}.d{stroke:#0961b6;stroke-miterlimit:10;stroke-width:2px;}.d,.e{fill:none;}</style><clipPath id="b"><rect class="e" width="1754" height="700"/></clipPath></defs><g class="c"><g><path class="d" d="M0,40.69S513-15,756,231s246,340,563,232,454,262,454,262"/><path class="d" d="M-18.47,79.47s137.62-2.84,330.26,15.17c140.82,13.16,299.8,60.36,409.88,162.66,245.19,227.85,260.08,321.66,572.19,222.71,314.08-98.56,456.6,253.93,462.2,257.76"/><path class="d" d="M-36.94,118.25s111.06,12.39,310.93,19.28c137.7,4.75,298.76,48.55,413.35,146.06,246.7,209.92,273.91,302.43,581.38,213.42,310.91-90.01,459.2,245.86,470.4,253.52"/><path class="d" d="M-55.41,157.04s83.94,28.07,291.6,23.4c134.29-3.02,297.46,36.74,416.82,129.46,247.55,192.29,287.91,283.71,590.57,204.13,307.91-80.96,461.8,237.79,478.6,249.28"/><path class="d" d="M-73.88,195.82s56.4,44.29,272.27,27.51c130.69-10.16,295.9,24.98,420.29,112.85,247.75,175.03,301.95,265.03,599.76,194.84s464.39,229.72,486.8,245.03"/><path class="d" d="M-92.35,234.6s28.58,61.14,252.94,31.63c126.97-16.7,294.08,13.31,423.76,96.25,247.34,158.21,316.02,246.41,608.95,185.55,302.01-62.74,466.99,221.65,495,240.79"/><path class="d" d="M-110.82,273.39s.63,78.68,233.62,35.74c123.21-22.71,292.01,1.79,427.23,79.65,246.36,141.87,330.11,227.83,618.14,176.26,299.1-53.56,469.59,213.58,503.2,236.55"/><path class="d" d="M-129.29,312.17s-27.31,96.96,214.29,39.85c119.49-28.24,289.71-9.53,430.69,63.05,244.9,126.07,344.23,209.32,627.32,166.97,296.22-44.31,472.19,205.51,511.4,232.31"/><path class="d" d="M-147.76,350.95s-55.11,116.01,194.96,43.97c115.83-33.37,287.2-20.57,434.16,46.45,243.03,110.83,358.37,190.87,636.51,157.68,293.36-35,474.79,197.44,519.6,228.07"/><path class="d" d="M-166.24,389.74s-82.65,135.84,175.63,48.08c112.3-38.15,284.51-31.3,437.63,29.85,240.85,96.18,372.52,172.49,645.7,148.39,290.52-25.62,477.39,189.37,527.8,223.83"/><path class="d" d="M-184.71,428.52s-109.8,156.45,156.3,52.2c108.91-42.67,281.67-41.65,441.1,13.25,238.45,82.1,386.68,154.18,654.89,139.1,287.68-16.17,479.98,181.3,536,219.58"/><path class="d" d="M-203.18,467.3s-136.48,177.82,136.97,56.31c105.69-46.96,278.74-51.57,444.57-3.36,235.92,68.59,400.85,135.94,664.08,129.81,284.85-6.63,482.58,173.23,544.2,215.34"/><path class="d" d="M-221.65,506.08s-162.59,199.91,117.64,60.43c102.66-51.1,275.77-61.02,448.04-19.96,233.39,55.63,415.01,117.79,673.27,120.52,282.01,2.99,485.18,165.16,552.4,211.1"/><path class="d" d="M-240.12,544.87s-188.07,222.67,98.31,64.54c99.83-55.12,272.8-69.97,451.51-36.56,230.93,43.18,429.15,99.71,682.46,111.23,279.16,12.7,487.78,157.09,560.6,206.86"/><path class="d" d="M-258.59,583.65s-212.88,246.04,78.99,68.66c97.2-59.07,269.9-78.4,454.98-53.16,228.65,31.19,443.28,81.71,691.65,101.94,276.28,22.5,490.38,149.02,568.8,202.62"/><path class="d" d="M-277.06,622.43s-236.97,269.93,59.66,72.77c94.77-62.99,267.12-86.32,458.44-69.76,226.62,19.61,457.37,63.79,700.84,92.65,273.37,32.4,492.98,140.95,577,198.38"/><path class="d" d="M-295.53,661.22s-260.35,294.28,40.33,76.89c92.54-66.91,264.53-93.72,461.91-86.36,224.92,8.39,471.42,45.95,710.03,83.36,270.41,42.4,495.58,132.88,585.2,194.13"/><path class="d" d="M-314,700s-283,319,21,81,1523.84-12.71,1778,161"/></g></g></svg>